<?xml version="1.0" encoding="utf-8"?>
<!-- Generator: Adobe Illustrator 21.0.0, SVG Export Plug-In . SVG Version: 6.00 Build 0)  -->
<svg version="1.1" id="Calque_1" xmlns="http://www.w3.org/2000/svg" xmlns:xlink="http://www.w3.org/1999/xlink" x="0px" y="0px"
     viewBox="0 0 128 128" style="enable-background:new 0 0 128 128;" xml:space="preserve">
  <style type="text/css">
    #image-pattern{fill:#FFFFFF;}
  </style>
  <g>
    <defs>
      <path id="SVGID_1_" d="M8.9,126h110.3c3.8,0,6.9-3.1,6.9-6.9V8.9c0-3.8-3.1-6.9-6.9-6.9H8.9C5.1,2,2,5.1,2,8.9v110.3
			C2,122.9,5.1,126,8.9,126z"/>
    </defs>
    <clipPath id="SVGID_2_">
      <use xlink:href="#SVGID_1_"  style="overflow:visible;"/>
    </clipPath>
  </g>
  <g id="Layer_11">
    <g>
      <path id="image-pattern" d="M94.2,35.5C75,19.9,44,33,44,62.1c0,0,0,0,0,0h9.3L32.6,84.8L12,62.1h9c0,0,0,0,0,0
			C21,25.9,70.6,7.7,94.2,35.5z M34.8,93.5C54,109.1,85,96,85,66.9c0,0,0,0,0,0h-9.3l20.7-22.7L117,66.9h-9c0,0,0,0,0,0
			C108,103.1,58.4,121.3,34.8,93.5z"/>
    </g>
  </g>
</svg>
