<?xml version="1.0" encoding="utf-8"?>
<!-- Generator: Adobe Illustrator 21.0.0, SVG Export Plug-In . SVG Version: 6.00 Build 0)  -->
<svg version="1.1" id="Calque_1" xmlns="http://www.w3.org/2000/svg" xmlns:xlink="http://www.w3.org/1999/xlink" x="0px" y="0px"
     viewBox="0 0 128 128" style="enable-background:new 0 0 128 128;" xml:space="preserve">
  <style type="text/css">
    #image-pattern{fill:#FFFFFF;}
  </style>
  <g>
    <defs>
      <path id="SVGID_1_" d="M8.9,126h110.3c3.8,0,6.9-3.1,6.9-6.9V8.9c0-3.8-3.1-6.9-6.9-6.9H8.9C5.1,2,2,5.1,2,8.9v110.3
			C2,122.9,5.1,126,8.9,126z"/>
    </defs>
    <clipPath id="SVGID_2_">
      <use xlink:href="#SVGID_1_"  style="overflow:visible;"/>
    </clipPath>
  </g>

  <g>
  <g>
    <path id="image-pattern" d="M38,75.9C22.6,76.2,10.1,86.4,9,99.4h14.6l0-0.1c0.7-8.4,5-16.2,12.2-21.9C36.5,76.9,37.2,76.4,38,75.9
		 M43.8,49.9c0-1.9,0.2-3.6,0.6-5.4c-1.7-0.9-3.6-1.4-5.6-1.4c-7.6,0-13.8,7.3-13.8,16.4c0,8.8,5.8,15.9,13.1,16.3
		c3.3-2.3,6.9-4,10.8-5.2c0.8-1,1.5-2.2,2.1-3.5C46.6,63.1,43.8,56.9,43.8,49.9 M81.5,49.7C81.5,38.3,73.6,29,64,29
		c-9.6,0-17.5,9.3-17.5,20.7c0,10.3,6.3,18.8,14.5,20.5C42.5,71.4,27.7,84.1,26.3,100h75.3c-1.3-15.9-16.1-28.6-34.7-29.8
		C75.2,68.5,81.5,60,81.5,49.7 M103.1,60.1c0-9-6.2-16.4-13.8-16.4c-2,0-3.9,0.5-5.6,1.4c0.4,1.7,0.6,3.5,0.6,5.4
		c0,7-2.8,13.2-7.1,17.1c0.6,1.3,1.3,2.5,2.1,3.5c3.9,1.2,7.5,3,10.8,5.2C97.3,76,103.1,68.8,103.1,60.1 M119,100
		c-1.1-13-13.6-23.2-29-23.6c0.7,0.5,1.4,1,2.1,1.6c7.2,5.7,11.5,13.5,12.2,21.9l0,0.1L119,100L119,100z"/>
  </g>
  </g>
</svg>
