<?xml version="1.0" encoding="utf-8"?>
<!-- Generator: Adobe Illustrator 21.0.0, SVG Export Plug-In . SVG Version: 6.00 Build 0)  -->
<svg version="1.1" id="Calque_1" xmlns="http://www.w3.org/2000/svg" xmlns:xlink="http://www.w3.org/1999/xlink" x="0px" y="0px"
	 viewBox="0 0 128 128" style="enable-background:new 0 0 128 128;" xml:space="preserve">
<style type="text/css">
	.st0{clip-path:url(#SVGID_2_);fill:#0070C0;}
	.st1{display:none;}
	.st2{display:inline;fill:#FFFFFF;}
	.st3{display:inline;}
	.st4{fill:#FFFFFF;}
</style>
<g>
	<defs>
		<path id="SVGID_1_" d="M8.9,126h110.3c3.8,0,6.9-3.1,6.9-6.9V8.9c0-3.8-3.1-6.9-6.9-6.9H8.9C5.1,2,2,5.1,2,8.9v110.3
			C2,122.9,5.1,126,8.9,126z"/>
	</defs>
	<clipPath id="SVGID_2_">
		<use xlink:href="#SVGID_1_"  style="overflow:visible;"/>
	</clipPath>
	<path class="st0" d="M16,2C16,2,2,2,2,16v96c0,0,0,14,14,14h96c0,0,14,0,14-14V16c0,0,0-14-14-14H16z"/>
</g>
<g id="Livello_98" class="st1">
	<path class="st2" d="M38,75.9C22.6,76.2,10.1,86.4,9,99.4h14.6l0-0.1c0.7-8.4,5-16.2,12.2-21.9C36.5,76.9,37.2,76.4,38,75.9
		 M43.8,49.9c0-1.9,0.2-3.6,0.6-5.4c-1.7-0.9-3.6-1.4-5.6-1.4c-7.6,0-13.8,7.3-13.8,16.4c0,8.8,5.8,15.9,13.1,16.3
		c3.3-2.3,6.9-4,10.8-5.2c0.8-1,1.5-2.2,2.1-3.5C46.6,63.1,43.8,56.9,43.8,49.9 M81.5,49.7C81.5,38.3,73.6,29,64,29
		c-9.6,0-17.5,9.3-17.5,20.7c0,10.3,6.3,18.8,14.5,20.5C42.5,71.4,27.7,84.1,26.3,100h75.3c-1.3-15.9-16.1-28.6-34.7-29.8
		C75.2,68.5,81.5,60,81.5,49.7 M103.1,60.1c0-9-6.2-16.4-13.8-16.4c-2,0-3.9,0.5-5.6,1.4c0.4,1.7,0.6,3.5,0.6,5.4
		c0,7-2.8,13.2-7.1,17.1c0.6,1.3,1.3,2.5,2.1,3.5c3.9,1.2,7.5,3,10.8,5.2C97.3,76,103.1,68.8,103.1,60.1 M119,100
		c-1.1-13-13.6-23.2-29-23.6c0.7,0.5,1.4,1,2.1,1.6c7.2,5.7,11.5,13.5,12.2,21.9l0,0.1L119,100L119,100z"/>
</g>
<g id="Layer_11" class="st1">
	<g class="st3">
		<path id="refresh-4-icon" class="st4" d="M94.2,35.5C75,19.9,44,33,44,62.1c0,0,0,0,0,0h9.3L32.6,84.8L12,62.1h9c0,0,0,0,0,0
			C21,25.9,70.6,7.7,94.2,35.5z M34.8,93.5C54,109.1,85,96,85,66.9c0,0,0,0,0,0h-9.3l20.7-22.7L117,66.9h-9c0,0,0,0,0,0
			C108,103.1,58.4,121.3,34.8,93.5z"/>
	</g>
</g>
<g>
	<g>
		<path class="st4" d="M94,21H82v10.8h12V21z M106,21h-6v16.1H76V21H52v16.1H28V21h-6c-3.3,0-6,2.4-6,5.4v75.3c0,3,2.7,5.4,6,5.4h84
			c3.3,0,6-2.4,6-5.4V26.4C112,23.4,109.3,21,106,21z M100,96.3H28V47.9h72V96.3z M46,21H34v10.8h12V21z M70,58.6H58v10.8h12V58.6z
			 M88,58.6H76v10.8h12V58.6z M52,74.8H40v10.8h12V74.8z M52,58.6H40v10.8h12V58.6z M70,74.8H58v10.8h12V74.8z M88,74.8H76v10.8h12
			V74.8z"/>
	</g>
</g>
</svg>
